<svg xmlns="http://www.w3.org/2000/svg" viewBox="0 0 600 760" role="img" aria-label="Placeholder headshot">
  <rect width="600" height="760" fill="#f8fcff" />
  <rect x="28" y="28" width="544" height="704" fill="#ffffff" stroke="#050505" stroke-width="8" />
  <rect x="58" y="58" width="484" height="34" fill="#a8dbff" stroke="#050505" stroke-width="6" />
  <circle cx="300" cy="275" r="100" fill="#dff2ff" stroke="#050505" stroke-width="8" />
  <path d="M205 470c26-56 79-88 95-95 16 7 69 39 95 95v122H205z" fill="#dff2ff" stroke="#050505" stroke-width="8" />
  <path d="M250 257c13-18 31-28 50-28 19 0 37 10 50 28" fill="none" stroke="#050505" stroke-width="8" stroke-linecap="round" />
  <circle cx="265" cy="288" r="10" fill="#050505" />
  <circle cx="335" cy="288" r="10" fill="#050505" />
  <path d="M266 337c22 18 46 27 69 27 23 0 47-9 69-27" fill="none" stroke="#050505" stroke-width="8" stroke-linecap="round" />
  <text x="300" y="645" text-anchor="middle" font-family="Courier New, monospace" font-size="28" letter-spacing="4" fill="#050505">
    HEADSHOT
  </text>
  <text x="300" y="680" text-anchor="middle" font-family="Courier New, monospace" font-size="20" fill="#4a5560">
    Replace with your image
  </text>
</svg>
